<?xml version="1.0" encoding="UTF-8" standalone="no"?>
<svg width="141px" height="41px" viewBox="0 0 141 41" version="1.1" xmlns="http://www.w3.org/2000/svg" xmlns:xlink="http://www.w3.org/1999/xlink">
    <!-- Generator: Sketch 3.8.3 (29802) - http://www.bohemiancoding.com/sketch -->
    <title>Brand</title>
    <desc>Created with Sketch.</desc>
    <defs></defs>
    <g id="Mock-1" stroke="none" stroke-width="1" fill="none" fill-rule="evenodd">
        <g id="Brand" fill="#101010">
            <g>
                <g>
                    <path d="M43.6152795,16.6452174 L43.6152795,24.906087 C43.6152795,25.9205848 43.8109297,26.6814467 44.202236,27.1886957 C44.5935423,27.6959446 45.2964339,27.9495652 46.3109317,27.9495652 C46.6587595,27.9495652 47.028321,27.92058 47.4196273,27.8626087 C47.8109336,27.8046374 48.1370173,27.7176817 48.3978882,27.6017391 L48.4848447,32.8191304 C47.9920886,32.9930443 47.3689065,33.1452167 46.6152795,33.2756522 C45.8616525,33.4060876 45.1080369,33.4713043 44.3544099,33.4713043 C42.9051273,33.4713043 41.6877482,33.2901467 40.702236,32.9278261 C39.7167239,32.5655054 38.9268767,32.0437715 38.3326708,31.3626087 C37.7384649,30.6814459 37.310933,29.8698598 37.0500621,28.9278261 C36.7891912,27.9857924 36.6587578,26.9350783 36.6587578,25.7756522 L36.6587578,16.6452174 L33.1804969,16.6452174 L33.1804969,11.2973913 L36.6152795,11.2973913 L36.6152795,5.60173913 L43.6152795,5.60173913 L43.6152795,11.2973913 L48.702236,11.2973913 L48.702236,16.6452174 L43.6152795,16.6452174 Z M52.1370186,32.9495652 L52.1370186,0.08 L59.3544099,0.08 L59.3544099,32.9495652 L52.1370186,32.9495652 Z M81.3978882,32.9495652 L81.3978882,30.1234783 L81.3109317,30.1234783 C80.615276,31.224933 79.6225323,32.0727507 78.3326708,32.6669565 C77.0428093,33.2611624 75.6732578,33.5582609 74.2239752,33.5582609 C72.6007786,33.5582609 71.1515178,33.2394235 69.8761491,32.6017391 C68.6007804,31.9640548 67.521081,31.1162372 66.6370186,30.0582609 C65.7529562,29.0002846 65.0790499,27.7756591 64.6152795,26.3843478 C64.1515091,24.9930365 63.9196273,23.5437757 63.9196273,22.0365217 C63.9196273,20.5292678 64.1587554,19.0872533 64.6370186,17.7104348 C65.1152819,16.3336163 65.7964345,15.1234835 66.6804969,14.08 C67.5645593,13.0365165 68.6370123,12.2104378 69.8978882,11.6017391 C71.1587641,10.9930404 72.5717934,10.6886957 74.1370186,10.6886957 C75.7312295,10.6886957 77.0790421,10.9930404 78.1804969,11.6017391 C79.2819517,12.2104378 80.1370156,12.8770978 80.7457143,13.6017391 L80.8326708,13.6017391 L80.8326708,0.08 L87.9631056,0.08 L87.9631056,32.9495652 L81.3978882,32.9495652 Z M81.1370186,22.08 C81.1370186,21.3843443 81.0138315,20.7031917 80.7674534,20.0365217 C80.5210754,19.3698517 80.1732528,18.7756548 79.7239752,18.253913 C79.2746975,17.7321713 78.7312247,17.3118857 78.0935404,16.9930435 C77.455856,16.6742013 76.7312256,16.5147826 75.9196273,16.5147826 C75.0790434,16.5147826 74.3399204,16.6742013 73.702236,16.9930435 C73.0645517,17.3118857 72.5283252,17.724925 72.0935404,18.2321739 C71.6587556,18.7394228 71.3326719,19.3263735 71.1152795,19.9930435 C70.8978871,20.6597135 70.7891925,21.3408661 70.7891925,22.0365217 C70.7891925,22.7321774 70.8978871,23.4205763 71.1152795,24.1017391 C71.3326719,24.782902 71.6587556,25.3843452 72.0935404,25.906087 C72.5283252,26.4278287 73.0645517,26.8481143 73.702236,27.1669565 C74.3399204,27.4857987 75.0790434,27.6452174 75.9196273,27.6452174 C76.7312256,27.6452174 77.455856,27.4857987 78.0935404,27.1669565 C78.7312247,26.8481143 79.2746975,26.4278287 79.7239752,25.906087 C80.1732528,25.3843452 80.5210754,24.7901483 80.7674534,24.1234783 C81.0138315,23.4568083 81.1370186,22.7756557 81.1370186,22.08 L81.1370186,22.08 Z M107.658758,17.1234783 C107.339916,17.0365213 107.028325,16.9785509 106.723975,16.9495652 C106.419626,16.9205796 106.122527,16.906087 105.832671,16.906087 C104.876144,16.906087 104.071805,17.0799983 103.419627,17.4278261 C102.76745,17.7756539 102.245716,18.1959396 101.85441,18.6886957 C101.463104,19.1814517 101.180498,19.7176783 101.006584,20.2973913 C100.83267,20.8771043 100.745714,21.3843457 100.745714,21.8191304 L100.745714,32.9495652 L93.6152795,32.9495652 L93.6152795,11.2973913 L100.484845,11.2973913 L100.484845,14.4278261 L100.571801,14.4278261 C101.122529,13.3263713 101.90513,12.4278296 102.919627,11.7321739 C103.934125,11.0365183 105.108026,10.6886957 106.441366,10.6886957 C106.731223,10.6886957 107.013829,10.7031883 107.289193,10.7321739 C107.564556,10.7611596 107.789192,10.8046374 107.963106,10.8626087 L107.658758,17.1234783 Z M118.919627,40.08 L118.919627,36.2104348 L140.658758,36.2104348 L140.658758,40.08 L118.919627,40.08 Z M0.46,8.42782609 L22.633913,18.7756522 L22.633913,20.7756522 L0.46,31.1234783 L0.46,28.5147826 L19.1121739,19.7756522 L0.46,11.0365217 L0.46,8.42782609 Z"></path>
                </g>
            </g>
        </g>
    </g>
</svg>